<svg id="changeColor " fill="#050506"
    xmlns="http://www.w3.org/2000/svg"
    xmlns:xlink="http://www.w3.org/1999/xlink" width="200" zoomAndPan="magnify" viewBox="0 0 375 374.999991" height="200">
    <defs>&lt; path id="pathAttribute" d="M 8.917969 7.773438 L 367.417969 7.773438 L 367.417969 366.273438 L 8.917969 366.273438 Z M 8.917969 7.773438 " /&gt; </defs>
    <g>
        <path id="pathAttribute" d="M 344.105469 366.273438 L 32.230469 366.273438 C 19.386719 366.273438 8.917969 355.808594 8.917969 342.960938 L 8.917969 31.085938 C 8.917969 18.242188 19.386719 7.773438 32.230469 7.773438 L 344.105469 7.773438 C 356.949219 7.773438 367.417969 18.242188 367.417969 31.085938 L 367.417969 342.960938 C 367.417969 355.808594 356.949219 366.273438 344.105469 366.273438 " fill-opacity="1" fill-rule="nonzero" fill="#436E8E"></path>
    </g>
    <g id="inner-icon" transform="translate(90,80) ">
        <svg xmlns="http://www.w3.org/2000/svg" viewBox="0 0 512 512" id="IconChangeColor" height="200" width="200">            <!--!Font Awesome Free 6.5.1 by @fontawesome - https://fontawesome.com License - https://fontawesome.com/license/free Copyright 2024 Fonticons, Inc.-->
            <path d="M416 208c0 45.9-14.9 88.3-40 122.7L502.6 457.4c12.5 12.5 12.5 32.8 0 45.3s-32.8 12.5-45.3 0L330.7 376c-34.4 25.2-76.8 40-122.7 40C93.1 416 0 322.9 0 208S93.1 0 208 0S416 93.1 416 208zM208 352a144 144 0 1 0 0-288 144 144 0 1 0 0 288z" id="mainIconPathAttribute" fill="#ffffff"></path>
        </svg>
    </g>
</svg>