<svg xmlns="http://www.w3.org/2000/svg" width="45.605" height="31.352" viewBox="0 0 45.605 31.352">
  <g id="Logo" transform="translate(-835 -454.065)">
    <path id="Vector_1_" data-name="Vector (1)" d="M1.554,9.641l17.5-8.459a9.729,9.729,0,0,1,7.5,0l17.5,8.461c2.071,1,2.071,2.623,0,3.624l-17.5,8.461a9.742,9.742,0,0,1-7.5,0l-17.5-8.461C-.518,12.266-.518,10.643,1.554,9.641Z" transform="translate(835 462.939)" fill="#333" fill-rule="evenodd" opacity="0.95"/>
    <path id="Vector" d="M1.554,9.636l17.5-8.1a9.742,9.742,0,0,1,7.5,0L44.052,10c2.071,1,2.071,2.623,0,3.626l-17.5,8.459a9.743,9.743,0,0,1-7.5,0l-17.5-8.461C-.518,12.624-.518,10.637,1.554,9.636Z" transform="translate(835 453.275)" fill="#74a1be" fill-rule="evenodd" opacity="0.95"/>
  </g>
</svg>
